P3
72 18
255
1 1 1 1 1 1 1 1 1 0 0 0 1 1 1 1 1 1 1 1 1 1 1 1 1 1 1 1 1 1 1 1 1 1 1 1 1 1 1 1 1 1 0 0 0 1 1 1 1 1 1 1 1 1 1 1 1 1 1 1 1 1 1 1 1 1 0 0 0 1 1 1 1 1 1 1 1 1 1 1 1 1 1 1 1 1 1 1 1 1 1 1 1 0 0 0 1 1 1 1 1 1 1 1 1 1 1 1 1 1 1 1 1 1 1 1 1 1 1 1 1 1 1 0 0 0 1 1 1 1 1 1 1 1 1 1 1 1 1 1 1 1 1 1 0 0 0 1 1 1 1 1 1 1 1 1 1 1 1 1 1 1 1 1 1 1 1 1 1 1 1 1 1 1 0 0 0 1 1 1 1 1 1 1 1 1 1 1 1 1 1 1 1 1 1 1 1 1 1 1 1 0 0 0 1 1 1 1 1 1 1 1 1 1 1 1 
1 1 1 1 1 1 0 0 0 255 0 0 0 0 0 1 1 1 1 1 1 0 0 0 0 0 0 0 0 0 0 0 0 1 1 1 1 1 1 0 0 0 208 0 0 0 0 0 1 1 1 1 1 1 1 1 1 1 1 1 1 1 1 0 0 0 255 0 0 0 0 0 1 1 1 0 0 0 0 0 0 0 0 0 0 0 0 1 1 1 0 0 0 208 0 0 0 0 0 1 1 1 1 1 1 1 1 1 1 1 1 1 1 1 1 1 1 1 1 1 0 0 0 255 0 0 0 0 0 0 0 0 0 0 0 0 0 0 0 0 0 0 0 0 208 0 0 0 0 0 1 1 1 1 1 1 1 1 1 1 1 1 1 1 1 1 1 1 1 1 1 0 0 0 255 0 0 0 0 0 1 1 1 0 0 0 0 0 0 0 0 0 0 0 0 1 1 1 0 0 0 208 0 0 0 0 0 1 1 1 1 1 1 1 1 1 
1 1 1 0 0 0 0 0 0 255 208 0 0 0 0 1 1 1 0 0 0 255 0 0 255 0 0 208 0 0 208 0 0 0 0 0 1 1 1 0 0 0 208 176 0 0 0 0 0 0 0 1 1 1 1 1 1 1 1 1 0 0 0 0 0 0 255 208 0 0 0 0 0 0 0 255 0 0 255 0 0 208 0 0 208 0 0 0 0 0 0 0 0 208 176 0 0 0 0 0 0 0 1 1 1 1 1 1 1 1 1 1 1 1 1 1 1 0 0 0 0 0 0 255 208 0 0 0 0 255 0 0 255 0 0 208 0 0 208 0 0 0 0 0 208 176 0 0 0 0 0 0 0 1 1 1 1 1 1 1 1 1 1 1 1 1 1 1 0 0 0 0 0 0 255 208 0 0 0 0 0 0 0 255 0 0 255 0 0 208 0 0 208 0 0 0 0 0 0 0 0 208 176 0 0 0 0 0 0 0 1 1 1 1 1 1 
0 0 0 255 208 0 255 0 0 255 255 255 0 0 0 0 0 0 0 0 0 255 0 0 255 0 0 208 0 0 208 0 0 0 0 0 0 0 0 0 0 0 176 176 176 208 0 0 208 176 0 0 0 0 1 1 1 0 0 0 255 208 0 255 0 0 255 255 255 0 0 0 0 0 0 255 0 0 255 0 0 208 0 0 208 0 0 0 0 0 0 0 0 176 176 176 208 0 0 208 176 0 0 0 0 1 1 1 1 1 1 1 1 1 0 0 0 255 208 0 255 0 0 255 255 255 0 0 0 255 0 0 255 0 0 208 0 0 208 0 0 0 0 0 176 176 176 208 0 0 208 176 0 0 0 0 1 1 1 1 1 1 1 1 1 0 0 0 255 208 0 255 0 0 255 255 255 0 0 0 0 0 0 255 0 0 255 0 0 208 0 0 208 0 0 0 0 0 0 0 0 176 176 176 208 0 0 208 176 0 0 0 0 1 1 1 
1 1 1 0 0 0 255 0 0 255 255 255 255 255 255 255 0 0 0 0 0 0 0 0 255 0 0 208 0 0 0 0 0 0 0 0 208 0 0 176 176 176 176 176 176 208 0 0 0 0 0 1 1 1 1 1 1 1 1 1 0 0 0 255 0 0 255 255 255 255 255 255 0 0 0 0 0 0 255 0 0 208 0 0 0 0 0 0 0 0 176 176 176 176 176 176 208 0 0 0 0 0 1 1 1 1 1 1 1 1 1 1 1 1 1 1 1 0 0 0 255 0 0 255 255 255 255 255 255 0 0 0 255 0 0 208 0 0 0 0 0 176 176 176 176 176 176 208 0 0 0 0 0 1 1 1 1 1 1 1 1 1 1 1 1 1 1 1 0 0 0 255 0 0 255 255 255 255 255 255 0 0 0 0 0 0 255 0 0 208 0 0 0 0 0 0 0 0 176 176 176 176 176 176 208 0 0 0 0 0 1 1 1 1 1 1 
1 1 1 0 0 0 255 0 0 255 255 255 255 255 255 0 0 0 255 0 0 0 0 0 255 255 255 176 176 176 0 0 0 208 0 0 0 0 0 176 176 176 176 176 176 208 0 0 0 0 0 1 1 1 1 1 1 1 1 1 0 0 0 255 0 0 255 255 255 255 255 255 255 0 0 0 0 0 255 255 255 176 176 176 0 0 0 208 0 0 176 176 176 176 176 176 208 0 0 0 0 0 1 1 1 1 1 1 1 1 1 1 1 1 1 1 1 0 0 0 255 0 0 255 255 255 255 255 255 255 0 0 255 255 255 176 176 176 208 0 0 176 176 176 176 176 176 208 0 0 0 0 0 1 1 1 1 1 1 1 1 1 1 1 1 1 1 1 0 0 0 255 0 0 255 255 255 255 255 255 255 0 0 0 0 0 255 255 255 176 176 176 0 0 0 208 0 0 176 176 176 176 176 176 208 0 0 0 0 0 1 1 1 1 1 1 
1 1 1 0 0 0 255 208 0 0 0 0 255 208 0 255 255 255 255 208 0 255 0 0 255 0 0 208 0 0 208 0 0 208 176 0 176 176 176 208 176 0 0 0 0 208 176 0 0 0 0 1 1 1 1 1 1 1 1 1 0 0 0 255 208 0 0 0 0 255 208 0 255 208 0 255 0 0 255 0 0 208 0 0 208 0 0 208 176 0 208 176 0 0 0 0 208 176 0 0 0 0 1 1 1 1 1 1 1 1 1 1 1 1 1 1 1 0 0 0 255 208 0 0 0 0 255 208 0 255 208 0 255 0 0 208 0 0 208 176 0 208 176 0 0 0 0 208 176 0 0 0 0 1 1 1 1 1 1 1 1 1 1 1 1 1 1 1 0 0 0 255 208 0 0 0 0 255 208 0 255 208 0 255 0 0 255 0 0 208 0 0 208 0 0 208 176 0 208 176 0 0 0 0 208 176 0 0 0 0 1 1 1 1 1 1 
1 1 1 0 0 0 255 208 0 0 0 0 255 255 255 255 0 0 255 208 0 255 0 0 255 0 0 208 0 0 208 0 0 208 176 0 208 0 0 176 176 176 0 0 0 208 176 0 0 0 0 1 1 1 1 1 1 1 1 1 0 0 0 255 208 0 0 0 0 255 255 255 255 208 0 255 0 0 255 0 0 208 0 0 208 0 0 208 176 0 176 176 176 0 0 0 208 176 0 0 0 0 1 1 1 1 1 1 1 1 1 1 1 1 1 1 1 0 0 0 255 208 0 0 0 0 255 255 255 255 208 0 255 0 0 208 0 0 208 176 0 176 176 176 0 0 0 208 176 0 0 0 0 1 1 1 1 1 1 1 1 1 1 1 1 1 1 1 0 0 0 255 208 0 0 0 0 255 255 255 255 208 0 255 0 0 255 0 0 208 0 0 208 0 0 208 176 0 176 176 176 0 0 0 208 176 0 0 0 0 1 1 1 1 1 1 
1 1 1 1 1 1 0 0 0 1 1 1 0 0 0 255 0 0 255 0 0 255 0 0 255 0 0 208 0 0 208 0 0 208 0 0 208 0 0 0 0 0 1 1 1 0 0 0 1 1 1 1 1 1 1 1 1 1 1 1 1 1 1 0 0 0 0 0 0 255 0 0 255 0 0 255 0 0 255 0 0 208 0 0 208 0 0 208 0 0 208 0 0 0 0 0 0 0 0 1 1 1 1 1 1 1 1 1 1 1 1 1 1 1 1 1 1 1 1 1 0 0 0 0 0 0 255 0 0 255 0 0 255 0 0 208 0 0 208 0 0 208 0 0 0 0 0 0 0 0 1 1 1 1 1 1 1 1 1 1 1 1 1 1 1 1 1 1 1 1 1 0 0 0 0 0 0 255 0 0 255 0 0 255 0 0 255 0 0 208 0 0 208 0 0 208 0 0 208 0 0 0 0 0 0 0 0 1 1 1 1 1 1 1 1 1 
1 1 1 1 1 1 1 1 1 0 0 0 255 0 0 255 208 0 255 0 0 255 0 0 255 0 0 208 0 0 208 0 0 208 0 0 208 176 0 208 0 0 0 0 0 1 1 1 1 1 1 1 1 1 1 1 1 1 1 1 1 1 1 1 1 1 0 0 0 255 0 0 255 0 0 255 0 0 255 0 0 208 0 0 208 0 0 208 0 0 208 0 0 0 0 0 1 1 1 1 1 1 1 1 1 1 1 1 1 1 1 1 1 1 1 1 1 1 1 1 1 1 1 0 0 0 255 0 0 255 0 0 255 0 0 208 0 0 208 0 0 208 0 0 0 0 0 1 1 1 1 1 1 1 1 1 1 1 1 1 1 1 1 1 1 1 1 1 1 1 1 1 1 1 0 0 0 255 0 0 255 0 0 255 0 0 255 0 0 208 0 0 208 0 0 208 0 0 208 0 0 0 0 0 1 1 1 1 1 1 1 1 1 1 1 1 
1 1 1 1 1 1 0 0 0 255 0 0 255 0 0 255 0 0 0 0 0 255 0 0 255 0 0 208 0 0 208 0 0 0 0 0 208 0 0 208 0 0 208 0 0 0 0 0 1 1 1 1 1 1 1 1 1 1 1 1 1 1 1 0 0 0 255 0 0 255 0 0 0 0 0 255 0 0 255 0 0 208 0 0 208 0 0 0 0 0 208 0 0 208 0 0 0 0 0 1 1 1 1 1 1 1 1 1 1 1 1 1 1 1 1 1 1 1 1 1 0 0 0 255 0 0 255 0 0 255 0 0 255 0 0 208 0 0 208 0 0 208 0 0 208 0 0 0 0 0 1 1 1 1 1 1 1 1 1 1 1 1 1 1 1 1 1 1 1 1 1 0 0 0 255 0 0 255 0 0 0 0 0 255 0 0 255 0 0 208 0 0 208 0 0 0 0 0 208 0 0 208 0 0 0 0 0 1 1 1 1 1 1 1 1 1 
1 1 1 0 0 0 255 255 255 255 255 255 255 0 0 255 208 0 255 208 0 255 0 0 255 208 0 208 176 0 208 0 0 208 176 0 208 176 0 208 0 0 176 176 176 176 176 176 0 0 0 1 1 1 1 1 1 1 1 1 0 0 0 255 255 255 255 255 255 255 0 0 255 208 0 255 0 0 255 208 0 208 176 0 208 0 0 208 176 0 208 0 0 176 176 176 176 176 176 0 0 0 1 1 1 1 1 1 1 1 1 1 1 1 1 1 1 0 0 0 255 255 255 255 255 255 255 0 0 255 208 0 255 208 0 208 176 0 208 176 0 208 0 0 176 176 176 176 176 176 0 0 0 1 1 1 1 1 1 1 1 1 1 1 1 1 1 1 0 0 0 255 255 255 255 255 255 255 0 0 255 208 0 255 0 0 255 208 0 208 176 0 208 0 0 208 176 0 208 0 0 176 176 176 176 176 176 0 0 0 1 1 1 1 1 1 
0 0 0 255 0 0 255 255 255 255 0 0 255 0 0 255 208 0 255 0 0 255 0 0 255 0 0 208 0 0 208 0 0 208 0 0 208 176 0 208 0 0 208 0 0 176 176 176 208 0 0 0 0 0 1 1 1 0 0 0 255 0 0 255 255 255 255 0 0 255 0 0 255 0 0 255 0 0 255 0 0 208 0 0 208 0 0 208 0 0 208 0 0 208 0 0 176 176 176 208 0 0 0 0 0 1 1 1 1 1 1 1 1 1 0 0 0 255 0 0 255 255 255 255 0 0 255 0 0 255 0 0 255 0 0 208 0 0 208 0 0 208 0 0 208 0 0 176 176 176 208 0 0 0 0 0 1 1 1 1 1 1 1 1 1 0 0 0 255 0 0 255 255 255 255 0 0 255 0 0 255 0 0 255 0 0 255 0 0 208 0 0 208 0 0 208 0 0 208 0 0 208 0 0 176 176 176 208 0 0 0 0 0 1 1 1 
0 0 0 255 0 0 255 0 0 255 0 0 255 255 255 255 255 255 0 0 0 255 0 0 255 0 0 208 0 0 208 0 0 0 0 0 176 176 176 176 176 176 208 0 0 208 0 0 208 0 0 0 0 0 1 1 1 0 0 0 255 0 0 255 0 0 255 0 0 255 255 255 0 0 0 255 0 0 255 0 0 208 0 0 208 0 0 0 0 0 176 176 176 208 0 0 208 0 0 208 0 0 0 0 0 1 1 1 1 1 1 1 1 1 0 0 0 255 0 0 255 0 0 255 0 0 255 255 255 255 0 0 255 0 0 208 0 0 208 0 0 176 176 176 208 0 0 208 0 0 208 0 0 0 0 0 1 1 1 1 1 1 1 1 1 0 0 0 255 0 0 255 0 0 255 0 0 255 255 255 0 0 0 255 0 0 255 0 0 208 0 0 208 0 0 0 0 0 176 176 176 208 0 0 208 0 0 208 0 0 0 0 0 1 1 1 
1 1 1 0 0 0 0 0 0 255 0 0 255 0 0 255 0 0 0 0 0 255 0 0 255 0 0 208 0 0 208 0 0 0 0 0 208 0 0 208 0 0 208 0 0 0 0 0 0 0 0 1 1 1 1 1 1 1 1 1 0 0 0 0 0 0 255 0 0 255 0 0 0 0 0 255 0 0 255 0 0 208 0 0 208 0 0 0 0 0 208 0 0 208 0 0 0 0 0 0 0 0 1 1 1 1 1 1 1 1 1 1 1 1 1 1 1 0 0 0 0 0 0 255 0 0 255 0 0 255 0 0 255 0 0 208 0 0 208 0 0 208 0 0 208 0 0 0 0 0 0 0 0 1 1 1 1 1 1 1 1 1 1 1 1 1 1 1 0 0 0 0 0 0 255 0 0 255 0 0 0 0 0 255 0 0 255 0 0 208 0 0 208 0 0 0 0 0 208 0 0 208 0 0 0 0 0 0 0 0 1 1 1 1 1 1 
1 1 1 1 1 1 0 0 0 255 208 0 0 0 0 0 0 0 1 1 1 0 0 0 255 208 0 208 176 0 0 0 0 1 1 1 0 0 0 0 0 0 208 176 0 0 0 0 1 1 1 1 1 1 1 1 1 1 1 1 1 1 1 0 0 0 255 208 0 0 0 0 1 1 1 0 0 0 255 208 0 208 176 0 0 0 0 1 1 1 0 0 0 208 176 0 0 0 0 1 1 1 1 1 1 1 1 1 1 1 1 1 1 1 1 1 1 1 1 1 0 0 0 255 208 0 0 0 0 0 0 0 255 208 0 208 176 0 0 0 0 0 0 0 208 176 0 0 0 0 1 1 1 1 1 1 1 1 1 1 1 1 1 1 1 1 1 1 1 1 1 0 0 0 255 208 0 0 0 0 1 1 1 0 0 0 255 208 0 208 176 0 0 0 0 1 1 1 0 0 0 208 176 0 0 0 0 1 1 1 1 1 1 1 1 1 
1 1 1 1 1 1 0 0 0 255 208 0 0 0 0 1 1 1 1 1 1 0 0 0 255 208 0 208 176 0 0 0 0 1 1 1 1 1 1 0 0 0 208 176 0 0 0 0 1 1 1 1 1 1 1 1 1 1 1 1 1 1 1 0 0 0 255 208 0 0 0 0 1 1 1 0 0 0 255 208 0 208 176 0 0 0 0 1 1 1 0 0 0 208 176 0 0 0 0 1 1 1 1 1 1 1 1 1 1 1 1 1 1 1 1 1 1 1 1 1 0 0 0 255 208 0 0 0 0 0 0 0 255 208 0 208 176 0 0 0 0 0 0 0 208 176 0 0 0 0 1 1 1 1 1 1 1 1 1 1 1 1 1 1 1 1 1 1 1 1 1 0 0 0 255 208 0 0 0 0 1 1 1 0 0 0 255 208 0 208 176 0 0 0 0 1 1 1 0 0 0 208 176 0 0 0 0 1 1 1 1 1 1 1 1 1 
1 1 1 1 1 1 1 1 1 0 0 0 1 1 1 1 1 1 1 1 1 1 1 1 0 0 0 0 0 0 1 1 1 1 1 1 1 1 1 1 1 1 0 0 0 1 1 1 1 1 1 1 1 1 1 1 1 1 1 1 1 1 1 1 1 1 0 0 0 1 1 1 1 1 1 1 1 1 0 0 0 0 0 0 1 1 1 1 1 1 1 1 1 0 0 0 1 1 1 1 1 1 1 1 1 1 1 1 1 1 1 1 1 1 1 1 1 1 1 1 1 1 1 0 0 0 1 1 1 1 1 1 0 0 0 0 0 0 1 1 1 1 1 1 0 0 0 1 1 1 1 1 1 1 1 1 1 1 1 1 1 1 1 1 1 1 1 1 1 1 1 1 1 1 0 0 0 1 1 1 1 1 1 1 1 1 0 0 0 0 0 0 1 1 1 1 1 1 1 1 1 0 0 0 1 1 1 1 1 1 1 1 1 1 1 1 
